<svg width="12" height="20" viewBox="0 0 12 20" fill="none" xmlns="http://www.w3.org/2000/svg">
<path d="M6.66666 11.7811V6.62781C6.66666 6.4068 6.57887 6.19483 6.42259 6.03855C6.26631 5.88227 6.05434 5.79448 5.83333 5.79448C5.61232 5.79448 5.40036 5.88227 5.24408 6.03855C5.0878 6.19483 5 6.4068 5 6.62781V11.7811C4.44538 11.9777 3.97807 12.3639 3.68062 12.8716C3.38316 13.3793 3.27471 13.9757 3.37441 14.5556C3.47412 15.1355 3.77557 15.6615 4.22551 16.0407C4.67545 16.4199 5.24492 16.6279 5.83333 16.6279C6.42174 16.6279 6.99121 16.4199 7.44115 16.0407C7.89109 15.6615 8.19254 15.1355 8.29225 14.5556C8.39195 13.9757 8.2835 13.3793 7.98605 12.8716C7.68859 12.3639 7.22128 11.9777 6.66666 11.7811ZM9.99999 10.0536V4.12781C9.82416 -1.37969 1.84083 -1.37219 1.66667 4.12781V10.0536C0.862778 10.8741 0.319009 11.9137 0.103546 13.0419C-0.111916 14.1702 0.0105188 15.3369 0.455499 16.3959C0.900479 17.4549 1.6482 18.3589 2.60489 18.9946C3.56159 19.6303 4.68468 19.9694 5.83333 19.9694C6.98199 19.9694 8.10507 19.6303 9.06177 18.9946C10.0185 18.3589 10.7662 17.4549 11.2112 16.3959C11.6561 15.3369 11.7786 14.1702 11.5631 13.0419C11.3477 11.9137 10.8039 10.8741 9.99999 10.0536ZM5.83333 18.2945C4.99461 18.2851 4.1781 18.0236 3.48987 17.5442C2.80165 17.0647 2.27352 16.3893 1.9741 15.6058C1.67468 14.8223 1.6178 13.9669 1.81086 13.1506C2.00391 12.3343 2.43798 11.595 3.05667 11.0286C3.14371 10.9505 3.21334 10.8549 3.261 10.7481C3.30867 10.6413 3.33331 10.5256 3.33333 10.4086V4.12781C3.33333 3.46477 3.59672 2.82889 4.06557 2.36004C4.53441 1.8912 5.17029 1.62781 5.83333 1.62781C6.49637 1.62781 7.13226 1.8912 7.6011 2.36004C8.06994 2.82889 8.33333 3.46477 8.33333 4.12781V10.4086C8.33335 10.5256 8.35799 10.6413 8.40566 10.7481C8.45333 10.8549 8.52295 10.9505 8.60999 11.0286C9.22868 11.595 9.66275 12.3343 9.85581 13.1506C10.0489 13.9669 9.99199 14.8223 9.69256 15.6058C9.39314 16.3893 8.86501 17.0647 8.17679 17.5442C7.48856 18.0236 6.67205 18.2851 5.83333 18.2945Z" fill="#454253"/>
</svg>
