<svg width="14" height="21" viewBox="0 0 14 21" fill="none" xmlns="http://www.w3.org/2000/svg">
<path fill-rule="evenodd" clip-rule="evenodd" d="M11.5752 10.8317L7.1801 17.231L2.75163 10.853C2.02565 9.4116 1.94767 7.6929 2.53972 6.18258C4.25504 1.80677 10.0162 1.79165 11.7567 6.1685C12.3548 7.67258 12.2881 9.38858 11.5752 10.8317ZM13.1852 11.7552L8.22322 19.3021L8.22252 19.3035L8.17439 19.4009L7.70895 20.097C7.47765 20.5652 6.85557 20.5678 6.6207 20.1014L6.20244 19.4089L6.15356 19.3118L6.15285 19.3104L1.14872 11.7895C0.158276 9.823 0.0518839 7.47819 0.859608 5.41768C3.20235 -0.558692 11.0611 -0.569446 13.4331 5.39537C14.2486 7.44621 14.1579 9.78619 13.1852 11.7552ZM8.09001 8.11749C8.09133 8.66003 7.68416 9.10084 7.18055 9.10208C6.67694 9.10331 6.2676 8.66449 6.26627 8.12195C6.26494 7.57941 6.67212 7.1386 7.17573 7.13736C7.67934 7.13613 8.08868 7.57495 8.09001 8.11749ZM9.91374 8.11302C9.91772 9.74064 8.69619 11.0631 7.18536 11.0668C5.67453 11.0705 4.44653 9.75404 4.44254 8.12642C4.43855 6.4988 5.66009 5.17635 7.17092 5.17265C8.68175 5.16895 9.90975 6.4854 9.91374 8.11302Z" fill="#CC6666"/>
</svg>
