<svg width="24" height="27" viewBox="0 0 24 27" fill="none" xmlns="http://www.w3.org/2000/svg">
<path d="M21.4839 8.63333C21.676 8.70409 21.8827 8.71345 22.0767 8.66399L22.0204 9.08553C22.0128 9.14256 22.0101 9.20014 22.0124 9.25764C22.0144 9.30892 22.0128 9.3406 22.0103 9.36152C22.0103 9.36158 22.0103 9.36165 22.0103 9.36171L20.1265 24.9301L20.1265 24.9301C20.0735 25.3677 19.5224 25.9329 18.7319 25.9329H13.8311H13.6842H4.05658C3.69169 25.9329 3.29355 25.8032 2.95984 25.5757C2.62098 25.3446 2.42618 25.0678 2.36128 24.8438L1.02616 20.2357C1.02614 20.2357 1.02612 20.2356 1.0261 20.2355C0.967169 20.0318 1.01865 19.9447 1.06144 19.8965C1.12749 19.822 1.31185 19.6983 1.7107 19.7234L13.1946 20.4467C13.6789 20.4772 14.1152 20.1556 14.2294 19.6839L16.6634 9.62484C16.6634 9.62483 16.6634 9.62482 16.6634 9.6248C16.7166 9.40494 16.8925 9.1351 17.2112 8.90871C17.5255 8.68554 17.9103 8.55561 18.274 8.55561H21.027C21.1984 8.55561 21.352 8.58472 21.4839 8.63333ZM22.6652 4.2577L22.5788 4.90428C22.3315 4.76418 22.0331 4.73472 21.7593 4.82937C21.558 4.89897 21.3445 4.93711 21.1266 4.93711H18.7137C18.2532 4.93711 17.9294 4.78181 17.741 4.58508C17.5653 4.40176 17.4945 4.17561 17.5505 3.89584C17.5505 3.89578 17.5505 3.89571 17.5505 3.89565L17.6683 3.30804L17.6683 3.30784C17.7956 2.67185 18.6235 1.95605 19.6162 1.95605H21.4841C21.9359 1.95605 22.306 2.11032 22.554 2.34326C22.7948 2.56965 22.8914 2.83753 22.8692 3.11502L22.8692 3.1153L22.8265 3.65271L22.8265 3.65303C22.8177 3.76501 22.7892 3.87746 22.7403 3.98902C22.7029 4.07463 22.6776 4.16507 22.6652 4.2577Z" stroke="#454253" stroke-width="2" stroke-linejoin="round"/>
</svg>
