<svg width="13" height="13" viewBox="0 0 13 13" fill="none" xmlns="http://www.w3.org/2000/svg">
<path d="M6.35987 0.160645C4.67369 0.162468 3.05709 0.83311 1.86478 2.02542C0.672465 3.21773 0.00182374 4.83433 0 6.52051C0.317993 14.9473 12.4017 14.9436 12.7197 6.52051C12.7179 4.83433 12.0473 3.21773 10.855 2.02542C9.66265 0.83311 8.04605 0.162468 6.35987 0.160645V0.160645ZM6.35987 11.8204C4.95472 11.8189 3.60757 11.26 2.61398 10.2664C1.6204 9.27281 1.06152 7.92566 1.05998 6.52051C1.32497 -0.500782 11.3948 -0.499192 11.6598 6.52051C11.6582 7.92566 11.0993 9.27281 10.1058 10.2664C9.11217 11.26 7.76501 11.8189 6.35987 11.8204ZM6.35987 2.2806C5.23576 2.28186 4.15806 2.72897 3.36319 3.52384C2.56833 4.3187 2.12122 5.39641 2.11996 6.52051C2.31923 12.132 10.4016 12.1304 10.5998 6.52051C10.5985 5.39641 10.1514 4.3187 9.35654 3.52384C8.56168 2.72897 7.48398 2.28186 6.35987 2.2806ZM5.91786 7.09608C5.90666 6.95029 5.8811 6.80597 5.84154 6.6652C5.80174 6.52541 5.74849 6.38981 5.68254 6.26029C5.93841 6.15972 6.16948 6.00495 6.35987 5.80662C6.5498 6.00476 6.7803 6.15952 7.0356 6.26029C6.96965 6.38981 6.91641 6.52541 6.87661 6.6652C6.83705 6.80597 6.81149 6.95029 6.80029 7.09608C6.50923 7.03588 6.20892 7.03588 5.91786 7.09608ZM9.07341 4.86377L8.05053 5.27292C7.92209 5.32387 7.78314 5.34267 7.64577 5.32767C7.5084 5.31266 7.37679 5.26432 7.26237 5.18684C7.14795 5.10936 7.0542 5.00509 6.98928 4.88311C6.92435 4.76113 6.89022 4.62513 6.88986 4.48695V3.3851C7.33823 3.46156 7.76506 3.63307 8.14167 3.8881C8.51829 4.14314 8.83598 4.47581 9.07341 4.86377ZM5.82988 3.3851V4.48695C5.82951 4.62513 5.79538 4.76113 5.73046 4.88311C5.66554 5.00509 5.57179 5.10936 5.45737 5.18684C5.34295 5.26432 5.21133 5.31266 5.07397 5.32767C4.9366 5.34267 4.79765 5.32387 4.6692 5.27292L3.64632 4.86377C3.88376 4.47581 4.20145 4.14314 4.57806 3.8881C4.95468 3.63307 5.38151 3.46156 5.82988 3.3851ZM3.17993 6.52051C3.17993 6.29443 3.20392 6.06898 3.25148 5.84796L4.15246 6.20888C4.31331 6.27306 4.45721 6.37341 4.57302 6.50216C4.68883 6.63091 4.77344 6.7846 4.82028 6.95132C4.86713 7.11804 4.87495 7.29331 4.84314 7.46353C4.81133 7.63376 4.74076 7.79438 4.63687 7.93293L4.05389 8.70831C3.49242 8.11834 3.17948 7.33495 3.17993 6.52051ZM4.90081 9.34536L5.51189 8.53447C5.61408 8.40799 5.74327 8.30598 5.88999 8.23589C6.03672 8.16581 6.19726 8.12944 6.35987 8.12944C6.52247 8.12944 6.68302 8.16581 6.82974 8.23589C6.97647 8.30598 7.10566 8.40799 7.20785 8.53447L7.81681 9.34588C7.36542 9.57662 6.86569 9.69689 6.35875 9.6968C5.8518 9.69671 5.35212 9.57626 4.90081 9.34536ZM8.66373 8.70937L8.31606 8.24669L8.0818 7.93399C7.97771 7.79542 7.90696 7.63472 7.87503 7.46437C7.84311 7.29402 7.85088 7.1186 7.89773 6.95174C7.94459 6.78488 8.02927 6.63106 8.1452 6.50223C8.26114 6.37339 8.4052 6.27301 8.56621 6.20888L9.4672 5.84796C9.57531 6.35427 9.55872 6.87928 9.41884 7.37775C9.27897 7.87622 9.02 8.33322 8.66426 8.70937H8.66373Z" fill="#355070"/>
</svg>
